<svg width="24" height="24" viewBox="0 0 24 24" fill="none" xmlns="http://www.w3.org/2000/svg">
<rect width="24" height="24" rx="7" fill="#E98703"/>
<path d="M14.125 13H10.125V15H14.125V13Z" fill="white"/>
<path fill-rule="evenodd" clip-rule="evenodd" d="M8.125 13C8.65543 13 9.16414 12.7893 9.53921 12.4142C9.91429 12.0391 10.125 11.5304 10.125 11C10.125 10.4696 9.91429 9.96086 9.53921 9.58579C9.16414 9.21071 8.65543 9 8.125 9C7.59457 9 7.08586 9.21071 6.71079 9.58579C6.33571 9.96086 6.125 10.4696 6.125 11C6.125 11.5304 6.33571 12.0391 6.71079 12.4142C7.08586 12.7893 7.59457 13 8.125 13ZM8.125 11.5C8.25761 11.5 8.38479 11.4473 8.47855 11.3536C8.57232 11.2598 8.625 11.1326 8.625 11C8.625 10.8674 8.57232 10.7402 8.47855 10.6464C8.38479 10.5527 8.25761 10.5 8.125 10.5C7.99239 10.5 7.86521 10.5527 7.77145 10.6464C7.67768 10.7402 7.625 10.8674 7.625 11C7.625 11.1326 7.67768 11.2598 7.77145 11.3536C7.86521 11.4473 7.99239 11.5 8.125 11.5ZM18.125 11C18.125 11.5304 17.9143 12.0391 17.5392 12.4142C17.1641 12.7893 16.6554 13 16.125 13C15.5946 13 15.0859 12.7893 14.7108 12.4142C14.3357 12.0391 14.125 11.5304 14.125 11C14.125 10.4696 14.3357 9.96086 14.7108 9.58579C15.0859 9.21071 15.5946 9 16.125 9C16.6554 9 17.1641 9.21071 17.5392 9.58579C17.9143 9.96086 18.125 10.4696 18.125 11ZM16.625 11C16.625 11.1326 16.5723 11.2598 16.4786 11.3536C16.3848 11.4473 16.2576 11.5 16.125 11.5C15.9924 11.5 15.8652 11.4473 15.7714 11.3536C15.6777 11.2598 15.625 11.1326 15.625 11C15.625 10.8674 15.6777 10.7402 15.7714 10.6464C15.8652 10.5527 15.9924 10.5 16.125 10.5C16.2576 10.5 16.3848 10.5527 16.4786 10.6464C16.5723 10.7402 16.625 10.8674 16.625 11Z" fill="white"/>
<path fill-rule="evenodd" clip-rule="evenodd" d="M2.74883 14.666C3.24546 15.6673 4.01189 16.51 4.96176 17.099C5.91162 17.6881 7.00713 18.0002 8.12483 18H16.1248C18.5648 18 20.6648 16.544 21.6028 14.453C21.9961 14.1762 22.317 13.8088 22.5384 13.3818C22.7598 12.9549 22.8752 12.4809 22.8748 12C22.8748 10.987 22.3718 10.09 21.6028 9.548C21.1294 8.49109 20.3604 7.59373 19.3883 6.96417C18.4163 6.33461 17.2829 5.99976 16.1248 6H8.12483C7.0073 6.00003 5.912 6.31216 4.96233 6.90122C4.01266 7.49028 3.24638 8.33285 2.74983 9.334C2.26048 9.5865 1.85007 9.96882 1.56356 10.4391C1.27705 10.9093 1.12549 11.4493 1.12549 12C1.12549 12.5507 1.27705 13.0907 1.56356 13.5609C1.85007 14.0312 2.25948 14.4135 2.74883 14.666ZM8.12483 8H16.1248C17.5088 8 18.7278 8.702 19.4468 9.77C19.7228 10.46 19.8748 11.212 19.8748 12C19.8748 12.788 19.7228 13.54 19.4468 14.23C19.0811 14.7752 18.5867 15.2219 18.0073 15.5306C17.4279 15.8394 16.7813 16.0006 16.1248 16H8.12483C7.06396 16 6.04655 15.5786 5.2964 14.8284C4.54625 14.0783 4.12483 13.0609 4.12483 12C4.12483 10.9391 4.54625 9.92172 5.2964 9.17157C6.04655 8.42143 7.06396 8 8.12483 8Z" fill="white"/>
</svg>
