<svg width="45" height="45" viewBox="0 0 45 45" fill="none" xmlns="http://www.w3.org/2000/svg">
<path d="M22.5 21.5625C21.2568 21.5625 20.0645 21.0686 19.1854 20.1896C18.3064 19.3105 17.8125 18.1182 17.8125 16.875C17.8125 15.6318 18.3064 14.4395 19.1854 13.5604C20.0645 12.6814 21.2568 12.1875 22.5 12.1875C23.7432 12.1875 24.9355 12.6814 25.8146 13.5604C26.6936 14.4395 27.1875 15.6318 27.1875 16.875C27.1875 17.4906 27.0663 18.1001 26.8307 18.6688C26.5951 19.2375 26.2498 19.7543 25.8146 20.1896C25.3793 20.6248 24.8625 20.9701 24.2938 21.2057C23.7251 21.4413 23.1156 21.5625 22.5 21.5625ZM22.5 3.75C19.019 3.75 15.6806 5.13281 13.2192 7.59422C10.7578 10.0556 9.375 13.394 9.375 16.875C9.375 26.7188 22.5 41.25 22.5 41.25C22.5 41.25 35.625 26.7188 35.625 16.875C35.625 13.394 34.2422 10.0556 31.7808 7.59422C29.3194 5.13281 25.981 3.75 22.5 3.75Z" fill="white"/>
</svg>
